G04*
G04 #@! TF.GenerationSoftware,Altium Limited,Altium Designer,18.0.7 (293)*
G04*
G04 Layer_Color=65535*
%FSLAX25Y25*%
%MOIN*%
G70*
G01*
G75*
%ADD10C,0.01000*%
%ADD11C,0.00787*%
%ADD12C,0.00984*%
%ADD13C,0.00598*%
%ADD14C,0.00600*%
%ADD15C,0.01181*%
%ADD16R,0.50079X0.02236*%
%ADD17R,0.20079X0.02236*%
%ADD18R,0.29921X0.02236*%
%ADD19R,0.02236X0.29921*%
D10*
X275500Y77031D02*
G03*
X275500Y77031I-500J0D01*
G01*
X212500Y202579D02*
G03*
X212500Y202579I-500J0D01*
G01*
X287938Y123653D02*
G03*
X287938Y123653I-139J0D01*
G01*
X325500Y119579D02*
G03*
X325500Y119579I-500J0D01*
G01*
X291339Y222165D02*
G03*
X291339Y222165I-394J0D01*
G01*
X221339D02*
G03*
X221339Y222165I-394J0D01*
G01*
X144339D02*
G03*
X144339Y222165I-394J0D01*
G01*
X81339D02*
G03*
X81339Y222165I-394J0D01*
G01*
Y199165D02*
G03*
X81339Y199165I-394J0D01*
G01*
D11*
X276500Y82805D02*
G03*
X276500Y85305I0J1250D01*
G01*
X210000Y192329D02*
G03*
X210000Y189829I0J-1250D01*
G01*
X319226Y121079D02*
G03*
X316726Y121079I-1250J0D01*
G01*
X11378Y16244D02*
Y17819D01*
X8622Y16244D02*
Y17819D01*
X160000Y15079D02*
X170000D01*
X160000D02*
Y65079D01*
X170000Y15079D02*
Y65079D01*
X160000D02*
X170000D01*
X60213Y179457D02*
X61787D01*
X60213Y176701D02*
X61787D01*
X81378Y77339D02*
Y78913D01*
X78622Y77339D02*
Y78913D01*
X150622Y107291D02*
Y108866D01*
X153378Y107291D02*
Y108866D01*
X60378Y221291D02*
Y222866D01*
X57622Y221291D02*
Y222866D01*
X52378Y221291D02*
Y222866D01*
X49622Y221291D02*
Y222866D01*
X131378Y181291D02*
Y182866D01*
X128622Y181291D02*
Y182866D01*
X121378Y181291D02*
Y182866D01*
X118622Y181291D02*
Y182866D01*
X276500Y79764D02*
X296500D01*
Y88346D01*
X276500D02*
X296500D01*
X276500Y85305D02*
Y88346D01*
Y79764D02*
Y82805D01*
X341378Y242291D02*
Y243866D01*
X338622Y242291D02*
Y243866D01*
X120644Y76835D02*
Y79984D01*
X122219D01*
X120644Y68173D02*
Y71323D01*
Y68173D02*
X122219D01*
X108022Y70339D02*
Y71913D01*
X110778Y70339D02*
Y71913D01*
X139565Y68701D02*
X141140D01*
X139565Y71457D02*
X141140D01*
X139565Y76701D02*
X141140D01*
X139565Y79457D02*
X141140D01*
X210000Y192329D02*
Y200390D01*
Y181768D02*
Y189829D01*
X170000Y181768D02*
X210000D01*
X170000D02*
Y200390D01*
X210000D01*
X214622Y190291D02*
Y191866D01*
X217378Y190291D02*
Y191866D01*
X38622Y181244D02*
Y182819D01*
X41378Y181244D02*
Y182819D01*
X8622Y242291D02*
Y243866D01*
X11378Y242291D02*
Y243866D01*
X372213Y41457D02*
X373787D01*
X372213Y38701D02*
X373787D01*
X259000Y175079D02*
X279000D01*
Y185079D01*
X259000D02*
X279000D01*
X259000Y175079D02*
Y185079D01*
X281213Y123457D02*
X282787D01*
X281213Y120701D02*
X282787D01*
X293213Y120701D02*
X294787D01*
X293213Y123457D02*
X294787D01*
X300378Y146791D02*
Y148366D01*
X297622Y146791D02*
Y148366D01*
X322268Y121079D02*
Y141079D01*
X313685D02*
X322268D01*
X313685Y121079D02*
Y141079D01*
Y121079D02*
X316726D01*
X319226D02*
X322268D01*
X267622Y97291D02*
Y98866D01*
X270378Y97291D02*
Y98866D01*
X270378Y110291D02*
Y111866D01*
X267622Y110291D02*
Y111866D01*
X290213Y110457D02*
X291787D01*
X290213Y107701D02*
X291787D01*
X281213Y114701D02*
X282787D01*
X281213Y117457D02*
X282787D01*
X185000Y150079D02*
Y160079D01*
X225000D01*
X185000Y150079D02*
X225000D01*
Y160079D01*
X5000Y195079D02*
Y205079D01*
X55000D01*
X5000Y195079D02*
X55000D01*
Y205079D01*
D12*
X127829Y66992D02*
G03*
X127829Y66992I-492J0D01*
G01*
D13*
X14921Y39843D02*
Y62677D01*
X65000Y39843D02*
Y62677D01*
X99961Y7480D02*
Y30315D01*
X120039Y7480D02*
Y30315D01*
X316528Y96984D02*
Y104268D01*
X115039Y39843D02*
Y62677D01*
X144961Y39843D02*
Y62677D01*
X15039Y7480D02*
Y30315D01*
X44961Y7480D02*
Y30315D01*
X359764Y5118D02*
X382598D01*
X359764Y35039D02*
X382598D01*
X374961Y229842D02*
Y252677D01*
X345039Y229842D02*
Y252677D01*
X44961Y229842D02*
Y252677D01*
X15039Y229842D02*
Y252677D01*
X304614Y181102D02*
Y192717D01*
X343984D01*
X304614Y147441D02*
X343984D01*
Y181102D02*
Y192717D01*
X304614Y147441D02*
Y159055D01*
X343984Y147441D02*
Y159055D01*
X5000Y140079D02*
X15000D01*
Y120079D02*
Y140079D01*
X5000Y120079D02*
X15000D01*
X5000Y95079D02*
X145000D01*
Y165079D01*
X5000D02*
X145000D01*
X5000Y95079D02*
Y165079D01*
X64961Y7480D02*
Y30315D01*
X85039Y7480D02*
Y30315D01*
X115000Y229842D02*
Y252677D01*
X64921Y229842D02*
Y252677D01*
X100039Y39843D02*
Y62677D01*
X79961Y39843D02*
Y62677D01*
X185000Y229842D02*
Y252677D01*
X134921Y229842D02*
Y252677D01*
X255000Y229842D02*
Y252677D01*
X204921Y229842D02*
Y252677D01*
X325000Y229842D02*
Y252677D01*
X274921Y229842D02*
Y252677D01*
X293110Y214291D02*
Y215866D01*
X306890Y214291D02*
Y215866D01*
X293790Y221969D02*
X294000D01*
X293110Y208189D02*
X306890D01*
X293110Y221969D02*
X306890D01*
X223110Y214291D02*
Y215866D01*
X236890Y214291D02*
Y215866D01*
X223790Y221969D02*
X224000D01*
X223110Y208189D02*
X236890D01*
X223110Y221969D02*
X236890D01*
X146110Y214291D02*
Y215866D01*
X159890Y214291D02*
Y215866D01*
X146790Y221969D02*
X147000D01*
X146110Y208189D02*
X159890D01*
X146110Y221969D02*
X159890D01*
X83110Y214291D02*
Y215866D01*
X96890Y214291D02*
Y215866D01*
X83790Y221969D02*
X84000D01*
X83110Y208189D02*
X96890D01*
X83110Y221969D02*
X96890D01*
X83110Y191291D02*
Y192866D01*
X96890Y191291D02*
Y192866D01*
X83790Y198969D02*
X84000D01*
X83110Y185189D02*
X96890D01*
X83110Y198969D02*
X96890D01*
X44133Y118200D02*
X43067D01*
X43600D01*
Y115533D01*
X43067Y115000D01*
X42533D01*
X42000Y115533D01*
X45200Y118200D02*
Y115000D01*
X47333D01*
X50533Y117666D02*
X49999Y118200D01*
X48933D01*
X48399Y117666D01*
Y115533D01*
X48933Y115000D01*
X49999D01*
X50533Y115533D01*
X53732Y118200D02*
X52666D01*
X53199D01*
Y115533D01*
X52666Y115000D01*
X52133D01*
X51599Y115533D01*
X54799Y118200D02*
Y115000D01*
X56932D01*
X60132Y117666D02*
X59599Y118200D01*
X58532D01*
X57999Y117666D01*
Y115533D01*
X58532Y115000D01*
X59599D01*
X60132Y115533D01*
X63332Y118200D02*
X62265D01*
X62798D01*
Y115533D01*
X62265Y115000D01*
X61732D01*
X61199Y115533D01*
X64398Y118200D02*
Y115000D01*
X66531D01*
X69731Y117666D02*
X69198Y118200D01*
X68131D01*
X67598Y117666D01*
Y115533D01*
X68131Y115000D01*
X69198D01*
X69731Y115533D01*
X72931Y118200D02*
X71864D01*
X72398D01*
Y115533D01*
X71864Y115000D01*
X71331D01*
X70798Y115533D01*
X73998Y118200D02*
Y115000D01*
X76131D01*
X79330Y117666D02*
X78797Y118200D01*
X77731D01*
X77197Y117666D01*
Y115533D01*
X77731Y115000D01*
X78797D01*
X79330Y115533D01*
D14*
X15000Y39843D02*
X65000D01*
X15000Y62677D02*
X65000D01*
X99961Y30315D02*
X120039D01*
X99961Y7480D02*
X120039D01*
X340000Y20079D02*
Y60079D01*
X320000Y20079D02*
X340000D01*
X320000D02*
Y60079D01*
X340000D01*
X337500Y65079D02*
X340000D01*
X335000D02*
X337500D01*
Y62579D02*
Y67579D01*
X316528Y104268D02*
X323614Y111354D01*
X357079D01*
Y96984D02*
Y111354D01*
X357079Y70803D02*
Y85173D01*
X323614Y70803D02*
X357079D01*
X316528Y77890D02*
X323614Y70803D01*
X316528Y77890D02*
Y85173D01*
X115039Y62677D02*
X144961D01*
X115039Y39843D02*
X144961D01*
X15039Y30315D02*
X44961D01*
X15039Y7480D02*
X44961D01*
X359764Y5118D02*
Y35039D01*
X382598Y5118D02*
Y35039D01*
X345039Y229842D02*
X374961D01*
X345039Y252677D02*
X374961D01*
X15039Y229842D02*
X44961D01*
X15039Y252677D02*
X44961D01*
X268598Y136138D02*
X277457D01*
X284543D02*
X293402D01*
Y158382D01*
X289661Y162122D02*
X293402Y158382D01*
X284543Y162122D02*
X289661D01*
X268598Y136138D02*
Y158382D01*
X272339Y162122D01*
X277457D01*
X339000Y131957D02*
Y133531D01*
Y127626D02*
Y129201D01*
X336638D02*
X339000D01*
X341362D01*
X336638D02*
X339394Y131957D01*
X339000Y131563D02*
X341362Y129201D01*
X277500Y62579D02*
Y67579D01*
X275000Y65079D02*
X277500D01*
X280000D01*
X260000Y60079D02*
X280000D01*
X260000Y20079D02*
Y60079D01*
Y20079D02*
X280000D01*
Y60079D01*
X307500Y62579D02*
Y67579D01*
X305000Y65079D02*
X307500D01*
X310000D01*
X290000Y60079D02*
X310000D01*
X290000Y20079D02*
Y60079D01*
Y20079D02*
X310000D01*
Y60079D01*
X64961Y30315D02*
X85039D01*
X64961Y7480D02*
X85039D01*
X65000Y252677D02*
X115000D01*
X65000Y229842D02*
X115000D01*
X79961Y39843D02*
X100039D01*
X79961Y62677D02*
X100039D01*
X135000Y252677D02*
X185000D01*
X135000Y229842D02*
X185000D01*
X205000Y252677D02*
X255000D01*
X205000Y229842D02*
X255000D01*
X275000Y252677D02*
X325000D01*
X275000Y229842D02*
X325000D01*
X15000Y226999D02*
X16333D01*
X15666D01*
Y223000D01*
X15000D01*
X16333D01*
X18332D02*
Y226999D01*
X20332D01*
X20998Y226332D01*
Y224999D01*
X20332Y224333D01*
X18332D01*
X19665D02*
X20998Y223000D01*
X22331D02*
X23664D01*
X22997D01*
Y226999D01*
X22331Y226332D01*
X345000Y225999D02*
X346333D01*
X345666D01*
Y222000D01*
X345000D01*
X346333D01*
X348332D02*
Y225999D01*
X350332D01*
X350998Y225332D01*
Y223999D01*
X350332Y223333D01*
X348332D01*
X349665D02*
X350998Y222000D01*
X354997D02*
X352331D01*
X354997Y224666D01*
Y225332D01*
X354330Y225999D01*
X352997D01*
X352331Y225332D01*
X345000Y8999D02*
X346333D01*
X345666D01*
Y5000D01*
X345000D01*
X346333D01*
X348332D02*
Y8999D01*
X350332D01*
X350998Y8332D01*
Y6999D01*
X350332Y6333D01*
X348332D01*
X349665D02*
X350998Y5000D01*
X352331Y8332D02*
X352997Y8999D01*
X354330D01*
X354997Y8332D01*
Y7666D01*
X354330Y6999D01*
X353664D01*
X354330D01*
X354997Y6333D01*
Y5666D01*
X354330Y5000D01*
X352997D01*
X352331Y5666D01*
X204437Y46321D02*
X203105D01*
X203771D01*
Y42989D01*
X203105Y42323D01*
X202438D01*
X201772Y42989D01*
X205770Y44989D02*
Y42989D01*
X206437Y42323D01*
X208436D01*
Y44989D01*
X209769Y42323D02*
X211768D01*
X212435Y42989D01*
X211768Y43656D01*
X210436D01*
X209769Y44322D01*
X210436Y44989D01*
X212435D01*
X214434Y45655D02*
Y44989D01*
X213768D01*
X215101D01*
X214434D01*
Y42989D01*
X215101Y42323D01*
X217100D02*
X218433D01*
X217766D01*
Y44989D01*
X217100D01*
X220432Y42323D02*
Y44989D01*
X222432D01*
X223098Y44322D01*
Y42323D01*
X230429Y46321D02*
X229096D01*
X228430Y45655D01*
Y42989D01*
X229096Y42323D01*
X230429D01*
X231096Y42989D01*
Y45655D01*
X230429Y46321D01*
X232428Y42323D02*
Y44989D01*
X234428D01*
X235094Y44322D01*
Y42323D01*
X237760Y40990D02*
X238426D01*
X239093Y41656D01*
Y44989D01*
X237094D01*
X236427Y44322D01*
Y42989D01*
X237094Y42323D01*
X239093D01*
X201772Y53211D02*
Y49213D01*
X203771D01*
X204437Y49879D01*
Y52545D01*
X203771Y53211D01*
X201772D01*
X207770Y49213D02*
X206437D01*
X205770Y49879D01*
Y51212D01*
X206437Y51878D01*
X207770D01*
X208436Y51212D01*
Y50546D01*
X205770D01*
X212435Y51878D02*
X210436D01*
X209769Y51212D01*
Y49879D01*
X210436Y49213D01*
X212435D01*
X217766D02*
X219099D01*
X218433D01*
Y53211D01*
X217766Y52545D01*
X221099Y49879D02*
X221765Y49213D01*
X223098D01*
X223765Y49879D01*
Y52545D01*
X223098Y53211D01*
X221765D01*
X221099Y52545D01*
Y51878D01*
X221765Y51212D01*
X223765D01*
X204437Y59435D02*
X203771Y60101D01*
X202438D01*
X201772Y59435D01*
Y58768D01*
X202438Y58102D01*
X203771D01*
X204437Y57435D01*
Y56769D01*
X203771Y56102D01*
X202438D01*
X201772Y56769D01*
X205770Y58768D02*
Y56769D01*
X206437Y56102D01*
X208436D01*
Y58768D01*
X209769Y56102D02*
Y58768D01*
X210436D01*
X211102Y58102D01*
Y56102D01*
Y58102D01*
X211768Y58768D01*
X212435Y58102D01*
Y56102D01*
X214434D02*
X215767D01*
X216434Y56769D01*
Y58102D01*
X215767Y58768D01*
X214434D01*
X213768Y58102D01*
Y56769D01*
X214434Y56102D01*
X224431D02*
X221765D01*
X224431Y58768D01*
Y59435D01*
X223765Y60101D01*
X222432D01*
X221765Y59435D01*
X225764D02*
X226430Y60101D01*
X227763D01*
X228430Y59435D01*
Y56769D01*
X227763Y56102D01*
X226430D01*
X225764Y56769D01*
Y59435D01*
X232428Y56102D02*
X229763D01*
X232428Y58768D01*
Y59435D01*
X231762Y60101D01*
X230429D01*
X229763Y59435D01*
X233761D02*
X234428Y60101D01*
X235761D01*
X236427Y59435D01*
Y56769D01*
X235761Y56102D01*
X234428D01*
X233761Y56769D01*
Y59435D01*
X84359Y182148D02*
X81693D01*
Y178150D01*
X84359D01*
X81693Y180149D02*
X83026D01*
X85692Y180815D02*
Y178150D01*
Y179482D01*
X86358Y180149D01*
X87024Y180815D01*
X87691D01*
X89690D02*
Y178150D01*
Y179482D01*
X90357Y180149D01*
X91023Y180815D01*
X91690D01*
X94355Y178150D02*
X95688D01*
X96355Y178816D01*
Y180149D01*
X95688Y180815D01*
X94355D01*
X93689Y180149D01*
Y178816D01*
X94355Y178150D01*
X97688Y180815D02*
Y178150D01*
Y179482D01*
X98354Y180149D01*
X99021Y180815D01*
X99687D01*
X211645Y166400D02*
X210312D01*
X209646Y165734D01*
Y163068D01*
X210312Y162402D01*
X211645D01*
X212312Y163068D01*
Y165734D01*
X211645Y166400D01*
X213644D02*
Y162402D01*
X216310D01*
X220309Y166400D02*
X217643D01*
Y162402D01*
X220309D01*
X217643Y164401D02*
X218976D01*
X221642Y166400D02*
Y162402D01*
X223641D01*
X224308Y163068D01*
Y165734D01*
X223641Y166400D01*
X221642D01*
X219109Y138493D02*
X218442Y137826D01*
Y136493D01*
X219109Y135827D01*
X219775D01*
X220442Y136493D01*
Y137826D01*
X221108Y138493D01*
X221775D01*
X222441Y137826D01*
Y136493D01*
X221775Y135827D01*
X218442Y139825D02*
X222441D01*
Y141825D01*
X221775Y142491D01*
X219109D01*
X218442Y141825D01*
Y139825D01*
X222441Y143824D02*
X219775D01*
X218442Y145157D01*
X219775Y146490D01*
X222441D01*
X220442D01*
Y143824D01*
X209266Y138493D02*
X208600Y137826D01*
Y136493D01*
X209266Y135827D01*
X209933D01*
X210599Y136493D01*
Y137826D01*
X211265Y138493D01*
X211932D01*
X212598Y137826D01*
Y136493D01*
X211932Y135827D01*
X209266Y142491D02*
X208600Y141825D01*
Y140492D01*
X209266Y139825D01*
X211932D01*
X212598Y140492D01*
Y141825D01*
X211932Y142491D01*
X208600Y143824D02*
X212598D01*
Y146490D01*
X197773Y138493D02*
Y135827D01*
X199772D01*
X199106Y137160D01*
Y137826D01*
X199772Y138493D01*
X201105D01*
X201772Y137826D01*
Y136493D01*
X201105Y135827D01*
X197773Y139825D02*
X200439D01*
X201772Y141158D01*
X200439Y142491D01*
X197773D01*
X188597Y138493D02*
X187930Y137826D01*
Y136493D01*
X188597Y135827D01*
X191263D01*
X191929Y136493D01*
Y137826D01*
X191263Y138493D01*
X189930D01*
Y137160D01*
X191929Y139825D02*
X187930D01*
X191929Y142491D01*
X187930D01*
Y143824D02*
X191929D01*
Y145824D01*
X191263Y146490D01*
X188597D01*
X187930Y145824D01*
Y143824D01*
X174213Y28543D02*
Y32542D01*
X176212D01*
X176878Y31876D01*
Y30543D01*
X176212Y29876D01*
X174213D01*
X175546D02*
X176878Y28543D01*
X178211Y32542D02*
X180877Y28543D01*
Y32542D02*
X178211Y28543D01*
X174213Y42384D02*
X176878D01*
X175546D01*
Y38386D01*
X178211Y42384D02*
X180877Y38386D01*
Y42384D02*
X178211Y38386D01*
X176878Y51561D02*
X176212Y52227D01*
X174879D01*
X174213Y51561D01*
Y48895D01*
X174879Y48228D01*
X176212D01*
X176878Y48895D01*
Y50228D01*
X175546D01*
X178211Y48228D02*
Y52227D01*
X180877Y48228D01*
Y52227D01*
X182210D02*
Y48228D01*
X184209D01*
X184876Y48895D01*
Y51561D01*
X184209Y52227D01*
X182210D01*
X174213Y62070D02*
Y59404D01*
X175546Y58071D01*
X176878Y59404D01*
Y62070D01*
X180877Y61403D02*
X180211Y62070D01*
X178878D01*
X178211Y61403D01*
Y58737D01*
X178878Y58071D01*
X180211D01*
X180877Y58737D01*
X184876Y61403D02*
X184209Y62070D01*
X182877D01*
X182210Y61403D01*
Y58737D01*
X182877Y58071D01*
X184209D01*
X184876Y58737D01*
X160433Y11873D02*
Y7874D01*
Y9873D01*
X163099D01*
Y11873D01*
Y7874D01*
X167098Y11206D02*
X166431Y11873D01*
X165098D01*
X164432Y11206D01*
Y8540D01*
X165098Y7874D01*
X166431D01*
X167098Y8540D01*
X168430Y9873D02*
X171096D01*
X172429Y7874D02*
X173762D01*
X173096D01*
Y11873D01*
X172429Y11206D01*
X178427Y7874D02*
X175761D01*
X178427Y10540D01*
Y11206D01*
X177761Y11873D01*
X176428D01*
X175761Y11206D01*
X133858Y36479D02*
Y32480D01*
X136524D01*
X140523Y36479D02*
X137857D01*
Y32480D01*
X140523D01*
X137857Y34480D02*
X139190D01*
X141856Y36479D02*
Y32480D01*
X143855D01*
X144521Y33147D01*
Y35813D01*
X143855Y36479D01*
X141856D01*
X73757Y40354D02*
X77090D01*
X77756Y41021D01*
Y42354D01*
X77090Y43020D01*
X73757D01*
X77756Y44353D02*
X75090D01*
X73757Y45686D01*
X75090Y47019D01*
X77756D01*
X75757D01*
Y44353D01*
X77756Y48352D02*
X73757D01*
Y50351D01*
X74424Y51017D01*
X75757D01*
X76423Y50351D01*
Y48352D01*
Y49685D02*
X77756Y51017D01*
X73757Y52350D02*
Y55016D01*
Y53683D01*
X77756D01*
X67852Y42354D02*
Y41021D01*
X68518Y40354D01*
X71184D01*
X71850Y41021D01*
Y42354D01*
X71184Y43020D01*
X68518D01*
X67852Y42354D01*
Y44353D02*
X71850D01*
Y46352D01*
X71184Y47019D01*
X68518D01*
X67852Y46352D01*
Y44353D01*
X69185Y48352D02*
X71850D01*
X70517D01*
X69851Y49018D01*
X69185Y49685D01*
Y50351D01*
X71850Y52350D02*
Y53683D01*
Y53017D01*
X69185D01*
Y52350D01*
Y55683D02*
X71850Y57016D01*
X69185Y58349D01*
X71850Y61681D02*
Y60348D01*
X71184Y59681D01*
X69851D01*
X69185Y60348D01*
Y61681D01*
X69851Y62347D01*
X70517D01*
Y59681D01*
X103059Y5301D02*
X102393Y5967D01*
X101060D01*
X100394Y5301D01*
Y4634D01*
X101060Y3968D01*
X102393D01*
X103059Y3301D01*
Y2635D01*
X102393Y1969D01*
X101060D01*
X100394Y2635D01*
X104392Y5967D02*
Y1969D01*
X105725Y3301D01*
X107058Y1969D01*
Y5967D01*
X111057Y1969D02*
X108391D01*
X111057Y4634D01*
Y5301D01*
X110390Y5967D01*
X109058D01*
X108391Y5301D01*
X67626D02*
X66960Y5967D01*
X65627D01*
X64961Y5301D01*
Y4634D01*
X65627Y3968D01*
X66960D01*
X67626Y3301D01*
Y2635D01*
X66960Y1969D01*
X65627D01*
X64961Y2635D01*
X68959Y5967D02*
Y1969D01*
X70292Y3301D01*
X71625Y1969D01*
Y5967D01*
X72958Y1969D02*
X74291D01*
X73624D01*
Y5967D01*
X72958Y5301D01*
X16000Y5999D02*
X17333D01*
X16667D01*
Y2000D01*
X16000D01*
X17333D01*
X19332D02*
Y5999D01*
X21332D01*
X21998Y5332D01*
Y3999D01*
X21332Y3333D01*
X19332D01*
X20665D02*
X21998Y2000D01*
X25330D02*
Y5999D01*
X23331Y3999D01*
X25997D01*
X11811Y41339D02*
X7812D01*
Y43338D01*
X8479Y44004D01*
X9812D01*
X10478Y43338D01*
Y41339D01*
Y42671D02*
X11811Y44004D01*
Y47337D02*
Y46004D01*
X11145Y45337D01*
X9812D01*
X9145Y46004D01*
Y47337D01*
X9812Y48003D01*
X10478D01*
Y45337D01*
X9145Y52002D02*
Y50002D01*
X9812Y49336D01*
X11145D01*
X11811Y50002D01*
Y52002D01*
Y55334D02*
Y54001D01*
X11145Y53335D01*
X9812D01*
X9145Y54001D01*
Y55334D01*
X9812Y56001D01*
X10478D01*
Y53335D01*
X11811Y57333D02*
Y58666D01*
Y58000D01*
X9145D01*
Y57333D01*
Y60666D02*
X11811Y61999D01*
X9145Y63332D01*
X11811Y66664D02*
Y65331D01*
X11145Y64664D01*
X9812D01*
X9145Y65331D01*
Y66664D01*
X9812Y67330D01*
X10478D01*
Y64664D01*
X9145Y68663D02*
X11811D01*
X10478D01*
X9812Y69330D01*
X9145Y69996D01*
Y70662D01*
X18455Y68077D02*
Y65945D01*
X20054D01*
X19521Y67011D01*
Y67544D01*
X20054Y68077D01*
X21120D01*
X21654Y67544D01*
Y66478D01*
X21120Y65945D01*
X18455Y69144D02*
X20587D01*
X21654Y70210D01*
X20587Y71276D01*
X18455D01*
X28830Y68077D02*
X28297Y67544D01*
Y66478D01*
X28830Y65945D01*
X30963D01*
X31496Y66478D01*
Y67544D01*
X30963Y68077D01*
X28297Y69144D02*
X31496D01*
X29897D01*
Y71276D01*
X28297D01*
X31496D01*
X28830Y72343D02*
X28297Y72876D01*
Y73942D01*
X28830Y74476D01*
X30963D01*
X31496Y73942D01*
Y72876D01*
X30963Y72343D01*
X28830D01*
X38673Y68077D02*
X38140Y67544D01*
Y66478D01*
X38673Y65945D01*
X40805D01*
X41339Y66478D01*
Y67544D01*
X40805Y68077D01*
X38140Y69144D02*
X41339D01*
X39739D01*
Y71276D01*
X38140D01*
X41339D01*
Y72343D02*
Y73409D01*
Y72876D01*
X38140D01*
X38673Y72343D01*
X48515Y68077D02*
X47982Y67544D01*
Y66478D01*
X48515Y65945D01*
X50648D01*
X51181Y66478D01*
Y67544D01*
X50648Y68077D01*
X47982Y69144D02*
X51181D01*
X49582D01*
Y71276D01*
X47982D01*
X51181D01*
Y74476D02*
Y72343D01*
X49049Y74476D01*
X48515D01*
X47982Y73942D01*
Y72876D01*
X48515Y72343D01*
X59342Y68077D02*
X58809Y67544D01*
Y66478D01*
X59342Y65945D01*
X61475D01*
X62008Y66478D01*
Y67544D01*
X61475Y68077D01*
X60408D01*
Y67011D01*
X62008Y69144D02*
X58809D01*
X62008Y71276D01*
X58809D01*
Y72343D02*
X62008D01*
Y73942D01*
X61475Y74476D01*
X59342D01*
X58809Y73942D01*
Y72343D01*
X261975Y190658D02*
X261442Y191191D01*
X260376D01*
X259842Y190658D01*
Y188525D01*
X260376Y187992D01*
X261442D01*
X261975Y188525D01*
Y189592D01*
X260909D01*
X263041Y187992D02*
Y191191D01*
X265174Y187992D01*
Y191191D01*
X266241D02*
Y187992D01*
X267840D01*
X268373Y188525D01*
Y190658D01*
X267840Y191191D01*
X266241D01*
X273786D02*
X271654D01*
Y189592D01*
X272720Y190125D01*
X273253D01*
X273786Y189592D01*
Y188525D01*
X273253Y187992D01*
X272187D01*
X271654Y188525D01*
X274852Y191191D02*
Y189058D01*
X275919Y187992D01*
X276985Y189058D01*
Y191191D01*
X83661Y76772D02*
Y79971D01*
X85261D01*
X85794Y79438D01*
Y78371D01*
X85261Y77838D01*
X83661D01*
X84728D02*
X85794Y76772D01*
X86860Y77305D02*
X87394Y76772D01*
X88460D01*
X88993Y77305D01*
Y79438D01*
X88460Y79971D01*
X87394D01*
X86860Y79438D01*
Y78904D01*
X87394Y78371D01*
X88993D01*
X150000Y114079D02*
Y117278D01*
X151600D01*
X152133Y116744D01*
Y115678D01*
X151600Y115145D01*
X150000D01*
X151066D02*
X152133Y114079D01*
X153199D02*
X154265D01*
X153732D01*
Y117278D01*
X153199Y116744D01*
X155865D02*
X156398Y117278D01*
X157464D01*
X157997Y116744D01*
Y114612D01*
X157464Y114079D01*
X156398D01*
X155865Y114612D01*
Y116744D01*
X46133Y183745D02*
X45599Y184278D01*
X44533D01*
X44000Y183745D01*
Y181612D01*
X44533Y181079D01*
X45599D01*
X46133Y181612D01*
X47199Y183745D02*
X47732Y184278D01*
X48798D01*
X49332Y183745D01*
Y183211D01*
X48798Y182678D01*
X49332Y182145D01*
Y181612D01*
X48798Y181079D01*
X47732D01*
X47199Y181612D01*
Y182145D01*
X47732Y182678D01*
X47199Y183211D01*
Y183745D01*
X47732Y182678D02*
X48798D01*
X116133Y190744D02*
X115600Y191278D01*
X114533D01*
X114000Y190744D01*
Y188612D01*
X114533Y188079D01*
X115600D01*
X116133Y188612D01*
X117199Y188079D02*
X118265D01*
X117732D01*
Y191278D01*
X117199Y190744D01*
X119865D02*
X120398Y191278D01*
X121464D01*
X121997Y190744D01*
Y188612D01*
X121464Y188079D01*
X120398D01*
X119865Y188612D01*
Y190744D01*
X339133Y251745D02*
X338599Y252278D01*
X337533D01*
X337000Y251745D01*
Y249612D01*
X337533Y249079D01*
X338599D01*
X339133Y249612D01*
X340199D02*
X340732Y249079D01*
X341798D01*
X342332Y249612D01*
Y251745D01*
X341798Y252278D01*
X340732D01*
X340199Y251745D01*
Y251211D01*
X340732Y250678D01*
X342332D01*
X130133Y190744D02*
X129599Y191278D01*
X128533D01*
X128000Y190744D01*
Y188612D01*
X128533Y188079D01*
X129599D01*
X130133Y188612D01*
X131199Y188079D02*
X132265D01*
X131732D01*
Y191278D01*
X131199Y190744D01*
X135997Y188079D02*
X133865D01*
X135997Y190211D01*
Y190744D01*
X135464Y191278D01*
X134398D01*
X133865Y190744D01*
X9133Y251745D02*
X8600Y252278D01*
X7533D01*
X7000Y251745D01*
Y249612D01*
X7533Y249079D01*
X8600D01*
X9133Y249612D01*
X10199Y252278D02*
X12332D01*
Y251745D01*
X10199Y249612D01*
Y249079D01*
X6070Y27272D02*
X5536Y27805D01*
X4470D01*
X3937Y27272D01*
Y25139D01*
X4470Y24606D01*
X5536D01*
X6070Y25139D01*
X7136Y24606D02*
X8202D01*
X7669D01*
Y27805D01*
X7136Y27272D01*
X9802D02*
X10335Y27805D01*
X11401D01*
X11934Y27272D01*
Y26739D01*
X11401Y26206D01*
X10868D01*
X11401D01*
X11934Y25673D01*
Y25139D01*
X11401Y24606D01*
X10335D01*
X9802Y25139D01*
X370833Y47745D02*
X370300Y48278D01*
X369233D01*
X368700Y47745D01*
Y45612D01*
X369233Y45079D01*
X370300D01*
X370833Y45612D01*
X371899Y45079D02*
X372965D01*
X372432D01*
Y48278D01*
X371899Y47745D01*
X374565Y45079D02*
X375631D01*
X375098D01*
Y48278D01*
X374565Y47745D01*
X58133Y184745D02*
X57600Y185278D01*
X56533D01*
X56000Y184745D01*
Y182612D01*
X56533Y182079D01*
X57600D01*
X58133Y182612D01*
X59199Y182079D02*
X60265D01*
X59732D01*
Y185278D01*
X59199Y184745D01*
X63464Y182079D02*
Y185278D01*
X61865Y183678D01*
X63997D01*
X310133Y80744D02*
X309599Y81278D01*
X308533D01*
X308000Y80744D01*
Y78612D01*
X308533Y78079D01*
X309599D01*
X310133Y78612D01*
X311199Y80744D02*
X311732Y81278D01*
X312799D01*
X313332Y80744D01*
Y80211D01*
X312799Y79678D01*
X312265D01*
X312799D01*
X313332Y79145D01*
Y78612D01*
X312799Y78079D01*
X311732D01*
X311199Y78612D01*
X269000Y83278D02*
Y80612D01*
X269533Y80079D01*
X270600D01*
X271133Y80612D01*
Y83278D01*
X272199Y80079D02*
X273265D01*
X272732D01*
Y83278D01*
X272199Y82744D01*
X5300Y179278D02*
Y176612D01*
X5833Y176079D01*
X6899D01*
X7433Y176612D01*
Y179278D01*
X10098Y176079D02*
Y179278D01*
X8499Y177678D01*
X10632D01*
X162402Y192175D02*
Y189509D01*
X162935Y188976D01*
X164001D01*
X164534Y189509D01*
Y192175D01*
X165601Y191642D02*
X166134Y192175D01*
X167200D01*
X167733Y191642D01*
Y191109D01*
X167200Y190576D01*
X166667D01*
X167200D01*
X167733Y190043D01*
Y189509D01*
X167200Y188976D01*
X166134D01*
X165601Y189509D01*
X288900Y228878D02*
Y226212D01*
X289433Y225679D01*
X290499D01*
X291033Y226212D01*
Y228878D01*
X292099Y226212D02*
X292632Y225679D01*
X293699D01*
X294232Y226212D01*
Y228344D01*
X293699Y228878D01*
X292632D01*
X292099Y228344D01*
Y227811D01*
X292632Y227278D01*
X294232D01*
X218900Y228878D02*
Y226212D01*
X219433Y225679D01*
X220499D01*
X221033Y226212D01*
Y228878D01*
X222099Y228344D02*
X222632Y228878D01*
X223698D01*
X224232Y228344D01*
Y227811D01*
X223698Y227278D01*
X224232Y226745D01*
Y226212D01*
X223698Y225679D01*
X222632D01*
X222099Y226212D01*
Y226745D01*
X222632Y227278D01*
X222099Y227811D01*
Y228344D01*
X222632Y227278D02*
X223698D01*
X141900Y228878D02*
Y226212D01*
X142433Y225679D01*
X143500D01*
X144033Y226212D01*
Y228878D01*
X145099D02*
X147232D01*
Y228344D01*
X145099Y226212D01*
Y225679D01*
X78900Y228878D02*
Y226212D01*
X79433Y225679D01*
X80500D01*
X81033Y226212D01*
Y228878D01*
X84232D02*
X83165Y228344D01*
X82099Y227278D01*
Y226212D01*
X82632Y225679D01*
X83698D01*
X84232Y226212D01*
Y226745D01*
X83698Y227278D01*
X82099D01*
X78900Y205878D02*
Y203212D01*
X79433Y202679D01*
X80500D01*
X81033Y203212D01*
Y205878D01*
X84232D02*
X82099D01*
Y204278D01*
X83165Y204811D01*
X83698D01*
X84232Y204278D01*
Y203212D01*
X83698Y202679D01*
X82632D01*
X82099Y203212D01*
X314000Y118278D02*
Y115612D01*
X314533Y115079D01*
X315599D01*
X316133Y115612D01*
Y118278D01*
X319332Y115079D02*
X317199D01*
X319332Y117211D01*
Y117745D01*
X318798Y118278D01*
X317732D01*
X317199Y117745D01*
X48000Y212079D02*
Y215278D01*
X49599D01*
X50133Y214744D01*
Y213678D01*
X49599Y213145D01*
X48000D01*
X49066D02*
X50133Y212079D01*
X51199Y214744D02*
X51732Y215278D01*
X52798D01*
X53332Y214744D01*
Y214211D01*
X52798Y213678D01*
X53332Y213145D01*
Y212612D01*
X52798Y212079D01*
X51732D01*
X51199Y212612D01*
Y213145D01*
X51732Y213678D01*
X51199Y214211D01*
Y214744D01*
X51732Y213678D02*
X52798D01*
X57000Y212079D02*
Y215278D01*
X58600D01*
X59133Y214744D01*
Y213678D01*
X58600Y213145D01*
X57000D01*
X58066D02*
X59133Y212079D01*
X60199Y215278D02*
X62332D01*
Y214744D01*
X60199Y212612D01*
Y212079D01*
X106000Y78079D02*
Y81278D01*
X107599D01*
X108133Y80744D01*
Y79678D01*
X107599Y79145D01*
X106000D01*
X107066D02*
X108133Y78079D01*
X111332Y81278D02*
X110265Y80744D01*
X109199Y79678D01*
Y78612D01*
X109732Y78079D01*
X110799D01*
X111332Y78612D01*
Y79145D01*
X110799Y79678D01*
X109199D01*
X147400Y68079D02*
Y71278D01*
X149000D01*
X149533Y70745D01*
Y69678D01*
X149000Y69145D01*
X147400D01*
X148466D02*
X149533Y68079D01*
X152732Y71278D02*
X150599D01*
Y69678D01*
X151665Y70211D01*
X152198D01*
X152732Y69678D01*
Y68612D01*
X152198Y68079D01*
X151132D01*
X150599Y68612D01*
X147400Y76079D02*
Y79278D01*
X149000D01*
X149533Y78745D01*
Y77678D01*
X149000Y77145D01*
X147400D01*
X148466D02*
X149533Y76079D01*
X152198D02*
Y79278D01*
X150599Y77678D01*
X152732D01*
X266000Y118079D02*
Y121278D01*
X267600D01*
X268133Y120745D01*
Y119678D01*
X267600Y119145D01*
X266000D01*
X267066D02*
X268133Y118079D01*
X269199Y120745D02*
X269732Y121278D01*
X270798D01*
X271332Y120745D01*
Y120211D01*
X270798Y119678D01*
X270265D01*
X270798D01*
X271332Y119145D01*
Y118612D01*
X270798Y118079D01*
X269732D01*
X269199Y118612D01*
X266000Y87079D02*
Y90278D01*
X267600D01*
X268133Y89745D01*
Y88678D01*
X267600Y88145D01*
X266000D01*
X267066D02*
X268133Y87079D01*
X271332D02*
X269199D01*
X271332Y89211D01*
Y89745D01*
X270798Y90278D01*
X269732D01*
X269199Y89745D01*
X280000Y126079D02*
Y129278D01*
X281599D01*
X282133Y128744D01*
Y127678D01*
X281599Y127145D01*
X280000D01*
X281066D02*
X282133Y126079D01*
X283199D02*
X284265D01*
X283732D01*
Y129278D01*
X283199Y128744D01*
X130133Y81612D02*
Y83745D01*
X129599Y84278D01*
X128533D01*
X128000Y83745D01*
Y81612D01*
X128533Y81079D01*
X129599D01*
X129066Y82145D02*
X130133Y81079D01*
X129599D02*
X130133Y81612D01*
X131199Y81079D02*
X132265D01*
X131732D01*
Y84278D01*
X131199Y83745D01*
X275200Y255579D02*
Y258778D01*
X276800D01*
X277333Y258244D01*
Y257178D01*
X276800Y256645D01*
X275200D01*
X278399Y255579D02*
X279465D01*
X278932D01*
Y258778D01*
X278399Y258244D01*
X282664Y255579D02*
Y258778D01*
X281065Y257178D01*
X283197D01*
X5200Y208079D02*
Y211278D01*
X6799D01*
X7333Y210745D01*
Y209678D01*
X6799Y209145D01*
X5200D01*
X8399Y208079D02*
X9465D01*
X8932D01*
Y211278D01*
X8399Y210745D01*
X11065D02*
X11598Y211278D01*
X12664D01*
X13197Y210745D01*
Y210211D01*
X12664Y209678D01*
X12131D01*
X12664D01*
X13197Y209145D01*
Y208612D01*
X12664Y208079D01*
X11598D01*
X11065Y208612D01*
X205200Y255579D02*
Y258778D01*
X206800D01*
X207333Y258244D01*
Y257178D01*
X206800Y256645D01*
X205200D01*
X208399Y255579D02*
X209465D01*
X208932D01*
Y258778D01*
X208399Y258244D01*
X211065D02*
X211598Y258778D01*
X212664D01*
X213197Y258244D01*
Y256112D01*
X212664Y255579D01*
X211598D01*
X211065Y256112D01*
Y258244D01*
X135200Y255579D02*
Y258778D01*
X136800D01*
X137333Y258244D01*
Y257178D01*
X136800Y256645D01*
X135200D01*
X138399Y256112D02*
X138932Y255579D01*
X139998D01*
X140532Y256112D01*
Y258244D01*
X139998Y258778D01*
X138932D01*
X138399Y258244D01*
Y257711D01*
X138932Y257178D01*
X140532D01*
X65200Y255579D02*
Y258778D01*
X66799D01*
X67333Y258244D01*
Y257178D01*
X66799Y256645D01*
X65200D01*
X68399Y258778D02*
X70532D01*
Y258244D01*
X68399Y256112D01*
Y255579D01*
X290300Y17177D02*
Y14512D01*
X291633Y13179D01*
X292966Y14512D01*
Y17177D01*
X294965Y15845D02*
X296298D01*
X296965Y15178D01*
Y13179D01*
X294965D01*
X294299Y13845D01*
X294965Y14512D01*
X296965D01*
X300963Y15845D02*
X298964D01*
X298297Y15178D01*
Y13845D01*
X298964Y13179D01*
X300963D01*
X302296Y15845D02*
Y13845D01*
X302963Y13179D01*
X304962D01*
Y15845D01*
X306295D02*
Y13845D01*
X306961Y13179D01*
X308961D01*
Y15845D01*
X310294Y13179D02*
Y15845D01*
X310960D01*
X311627Y15178D01*
Y13179D01*
Y15178D01*
X312293Y15845D01*
X312959Y15178D01*
Y13179D01*
X322299Y17177D02*
X320966D01*
X320300Y16511D01*
Y13845D01*
X320966Y13179D01*
X322299D01*
X322966Y13845D01*
Y16511D01*
X322299Y17177D01*
X324299D02*
Y13179D01*
X326298D01*
X326964Y13845D01*
Y16511D01*
X326298Y17177D01*
X324299D01*
X328297Y15845D02*
Y13179D01*
Y14512D01*
X328964Y15178D01*
X329630Y15845D01*
X330297D01*
X332296Y13179D02*
X333629D01*
X332963D01*
Y15845D01*
X332296D01*
X335628D02*
X336961Y13179D01*
X338294Y15845D01*
X341627Y13179D02*
X340294D01*
X339627Y13845D01*
Y15178D01*
X340294Y15845D01*
X341627D01*
X342293Y15178D01*
Y14512D01*
X339627D01*
X260300Y17177D02*
Y13179D01*
X262299D01*
X262966Y13845D01*
Y14512D01*
X262299Y15178D01*
X260300D01*
X262299D01*
X262966Y15845D01*
Y16511D01*
X262299Y17177D01*
X260300D01*
X264965Y15845D02*
X266298D01*
X266965Y15178D01*
Y13179D01*
X264965D01*
X264299Y13845D01*
X264965Y14512D01*
X266965D01*
X268964Y16511D02*
Y15845D01*
X268297D01*
X269630D01*
X268964D01*
Y13845D01*
X269630Y13179D01*
X272296Y16511D02*
Y15845D01*
X271630D01*
X272963D01*
X272296D01*
Y13845D01*
X272963Y13179D01*
X276961D02*
X275628D01*
X274962Y13845D01*
Y15178D01*
X275628Y15845D01*
X276961D01*
X277628Y15178D01*
Y14512D01*
X274962D01*
X278961Y15845D02*
Y13179D01*
Y14512D01*
X279627Y15178D01*
X280294Y15845D01*
X280960D01*
X282959D02*
Y13845D01*
X283626Y13179D01*
X285625D01*
Y12512D01*
X284959Y11846D01*
X284292D01*
X285625Y13179D02*
Y15845D01*
X347000Y151278D02*
Y148079D01*
X349133D01*
X350199D02*
X351265D01*
X350732D01*
Y151278D01*
X350199Y150744D01*
X291000Y129278D02*
Y126079D01*
X292600D01*
X293133Y126612D01*
Y128744D01*
X292600Y129278D01*
X291000D01*
X296332Y126079D02*
X294199D01*
X296332Y128211D01*
Y128744D01*
X295798Y129278D01*
X294732D01*
X294199Y128744D01*
X345000Y131278D02*
Y128079D01*
X346600D01*
X347133Y128612D01*
Y130745D01*
X346600Y131278D01*
X345000D01*
X348199Y128079D02*
X349265D01*
X348732D01*
Y131278D01*
X348199Y130745D01*
X222605Y191642D02*
X222072Y192175D01*
X221006D01*
X220472Y191642D01*
Y189509D01*
X221006Y188976D01*
X222072D01*
X222605Y189509D01*
X225804Y192175D02*
X224738Y191642D01*
X223671Y190576D01*
Y189509D01*
X224205Y188976D01*
X225271D01*
X225804Y189509D01*
Y190043D01*
X225271Y190576D01*
X223671D01*
X298133Y139744D02*
X297600Y140278D01*
X296533D01*
X296000Y139744D01*
Y137612D01*
X296533Y137079D01*
X297600D01*
X298133Y137612D01*
X301332Y140278D02*
X299199D01*
Y138678D01*
X300265Y139211D01*
X300799D01*
X301332Y138678D01*
Y137612D01*
X300799Y137079D01*
X299732D01*
X299199Y137612D01*
X270133Y166744D02*
X269600Y167278D01*
X268533D01*
X268000Y166744D01*
Y164612D01*
X268533Y164079D01*
X269600D01*
X270133Y164612D01*
X272798Y164079D02*
Y167278D01*
X271199Y165678D01*
X273332D01*
X300133Y109745D02*
X299600Y110278D01*
X298533D01*
X298000Y109745D01*
Y107612D01*
X298533Y107079D01*
X299600D01*
X300133Y107612D01*
X303332Y107079D02*
X301199D01*
X303332Y109211D01*
Y109745D01*
X302799Y110278D01*
X301732D01*
X301199Y109745D01*
X282133Y111744D02*
X281599Y112278D01*
X280533D01*
X280000Y111744D01*
Y109612D01*
X280533Y109079D01*
X281599D01*
X282133Y109612D01*
X283199Y109079D02*
X284265D01*
X283732D01*
Y112278D01*
X283199Y111744D01*
D15*
X339394Y131957D02*
X341165D01*
X336835D02*
X339000D01*
D16*
X39961Y40961D02*
D03*
X89961Y230961D02*
D03*
X159961D02*
D03*
X229961D02*
D03*
X299961D02*
D03*
D17*
X110000Y29197D02*
D03*
X75000D02*
D03*
X90000Y40961D02*
D03*
D18*
X130000Y40961D02*
D03*
X30000Y29197D02*
D03*
X360000Y230961D02*
D03*
X30000Y230961D02*
D03*
D19*
X360882Y20079D02*
D03*
M02*
