G04*
G04 #@! TF.GenerationSoftware,Altium Limited,Altium Designer,18.0.7 (293)*
G04*
G04 Layer_Color=16711935*
%FSLAX25Y25*%
%MOIN*%
G70*
G01*
G75*
%ADD33R,0.03556X0.04343*%
%ADD42R,0.07887X0.07887*%
%ADD43C,0.07887*%
%ADD44R,0.06706X0.06706*%
%ADD45C,0.06706*%
%ADD46C,0.14580*%
%ADD47R,0.07887X0.07887*%
%ADD48R,0.06706X0.06706*%
G36*
X340000Y77079D02*
X340000Y41079D01*
X288000Y41079D01*
X288000Y77079D01*
X340000Y77079D01*
D02*
G37*
G36*
X285000Y41079D02*
X260000Y41079D01*
Y77079D01*
X285000Y77079D01*
Y41079D01*
D02*
G37*
G36*
X340000Y1000D02*
X260000D01*
Y39000D01*
X340000D01*
Y1000D01*
D02*
G37*
D33*
X170905Y72079D02*
D03*
X159095Y72079D02*
D03*
X165000D02*
D03*
D42*
X20000Y50079D02*
D03*
X115000Y20079D02*
D03*
X120000Y50079D02*
D03*
X40000Y20079D02*
D03*
X350000Y240079D02*
D03*
X20000D02*
D03*
X80000Y20079D02*
D03*
X70000Y240079D02*
D03*
X85000Y50079D02*
D03*
X140000Y240079D02*
D03*
X210000D02*
D03*
X280000D02*
D03*
D43*
X40000Y50079D02*
D03*
X50000D02*
D03*
X30000D02*
D03*
X60000D02*
D03*
X105000Y20079D02*
D03*
X130000Y50079D02*
D03*
X140000D02*
D03*
X20000Y20079D02*
D03*
X30000D02*
D03*
X370000Y10079D02*
D03*
Y20079D02*
D03*
Y240079D02*
D03*
X360000D02*
D03*
X40000D02*
D03*
X30000D02*
D03*
X70000Y20079D02*
D03*
X110000Y240079D02*
D03*
X80000D02*
D03*
X100000D02*
D03*
X90000D02*
D03*
X95000Y50079D02*
D03*
X180000Y240079D02*
D03*
X150000D02*
D03*
X170000D02*
D03*
X160000D02*
D03*
X250000D02*
D03*
X220000D02*
D03*
X240000D02*
D03*
X230000D02*
D03*
X320000D02*
D03*
X290000D02*
D03*
X310000D02*
D03*
X300000D02*
D03*
D44*
X165000Y60079D02*
D03*
D45*
Y50079D02*
D03*
Y40079D02*
D03*
Y30079D02*
D03*
Y20079D02*
D03*
X264000Y180079D02*
D03*
X10000Y170079D02*
D03*
X140000D02*
D03*
X130000D02*
D03*
X120000D02*
D03*
X110000D02*
D03*
X100000D02*
D03*
X90000D02*
D03*
X80000D02*
D03*
X70000D02*
D03*
X60000D02*
D03*
X50000D02*
D03*
X40000D02*
D03*
X30000D02*
D03*
X20000D02*
D03*
Y90079D02*
D03*
X30000D02*
D03*
X40000D02*
D03*
X70000D02*
D03*
X80000D02*
D03*
X90000D02*
D03*
X100000D02*
D03*
X110000D02*
D03*
X120000D02*
D03*
X130000D02*
D03*
X140000D02*
D03*
X50000D02*
D03*
X60000D02*
D03*
Y100079D02*
D03*
X50000D02*
D03*
X10000Y160079D02*
D03*
X20000D02*
D03*
X30000D02*
D03*
X40000D02*
D03*
X50000D02*
D03*
X60000D02*
D03*
X70000D02*
D03*
X80000D02*
D03*
X90000D02*
D03*
X100000D02*
D03*
X110000D02*
D03*
X120000D02*
D03*
X130000D02*
D03*
X140000D02*
D03*
Y150079D02*
D03*
Y140079D02*
D03*
Y130079D02*
D03*
Y120079D02*
D03*
Y110079D02*
D03*
Y100079D02*
D03*
X130000D02*
D03*
X120000D02*
D03*
X110000D02*
D03*
X100000D02*
D03*
X90000D02*
D03*
X80000D02*
D03*
X70000D02*
D03*
X40000D02*
D03*
X30000D02*
D03*
X20000D02*
D03*
X10000D02*
D03*
Y90079D02*
D03*
X220000Y155079D02*
D03*
X210000D02*
D03*
X200000D02*
D03*
X50000Y200079D02*
D03*
X40000D02*
D03*
X30000D02*
D03*
X20000D02*
D03*
D46*
X330000Y50079D02*
D03*
Y30079D02*
D03*
X270000D02*
D03*
Y50079D02*
D03*
X300000Y30079D02*
D03*
Y50079D02*
D03*
D47*
X370000Y30079D02*
D03*
D48*
X274000Y180079D02*
D03*
X190000Y155079D02*
D03*
X10000Y200079D02*
D03*
M02*
