M48
;Layer_Color=9474304
;FILE_FORMAT=2:5
INCH,LZ
;TYPE=PLATED
T1F00S00C0.00787
T2F00S00C0.01968
T3F00S00C0.03543
T4F00S00C0.03937
T5F00S00C0.07874
T6F00S00C0.12205
%
T01
X0009Y0008079
X0015
X0021
X0027
X0033
X0039
X0045
X0051
X0057
X0063
X0069
X0075
X0081
X0087
X0093
X0099
X0105
X0111
X0117
X0123
X0129
X0135
X0141
X0147
X0153
X0156Y0014079
X015
X0144
X0138
X0132
X0126
X012
X0123Y0020079
X0129
X0135
X0141
X0147
X0153
X0156Y0026079
X015
X0144
X0138
X0132
X0126
X012
X0108
X0102
X0096
X009
X0093Y0020079
X0099
X0102Y0014079
X0108
X0096
X009
X0087Y0020079
X0072Y0026079
X0066
X006
X0054
X0057Y0020079
X0063
X0066Y0014079
X0072
X006
X0054
X0048
X0051Y0020079
X0018Y0026079
X0159Y0020079
X0162Y0014079
X0168
X0174
X018
X0186
X0192
X0198
X0204
X021
X0216
X0222
X0228
X0234
X024
X0246
X0252
X0258
X0261Y0020079
X0267
X0273
X0279
X0285
X0291
X0297
X0303
X0309
X0312Y0026079
X0309Y0008079
X0303
X0297
X0291
X0285
X0279
X0273
X0267
X0261
X0255
X0249
X0243
X0237
X0231
X0225
X0219
X0213
X0207
X0201
X0195
X0189
X0183
Y0020079
X0189
X0195
X0201
X0207
X0213
X0219
X0225
X0231
X0237
X0243
X0249
X0255
X0258Y0026079
X0252
X0246
X024
X0234
X0228
X0222
X0216
X021
X0204
X0198
X0192
X0186
X018
X0174
X0177Y0020079
X0171
X0159Y0008079
X0288Y0014079
Y0026079
X0282
X0318
X0321Y0020079
X0327
X0333
X0339
X0345
X0351
X0357
X0363
X036Y0026079
X0354
X0348
X0342
X0348Y0014079
X0354
X036
X0363Y0008079
X0357
X0339
X0333
X0327
X0321
X0315
X0318Y0014079
X0315Y0020079
X0381
X0387
X0384Y0026079
Y0014079
X0387Y0008079
X0381
X0387Y0032079
Y0044079
X0381
Y0056079
X0375
X0369
X0363
X0357
X0351
X0345
X0348Y0062079
X0354
X036
X0366
X0372
X0378
X0384
X0387Y0068079
X0381
X0375
X0369
X0363
X0357
X0351
X0345
X0348Y0074079
X0354
X036
X0366
X0372
X0378
X0384
X0387Y0080079
X0381
X0375
X0369
X0363
X0357
X0351
X0345
X0339
X0333
X0327
X0321
X0315
Y0062079
X0321
X0327
X0333
X0318Y0056079
X0321Y0050079
X0315
X0318Y0044079
Y0038079
X0324
X0336
X0342
X0348
X0354
X036
X0366
X0363Y0044079
X0357
X0351
X0345
X0348Y0050079
X0354
X036
X0366
X0372
X0363Y0032079
X0357
X0351
X0345
X0315
Y0104079
X0318Y0110079
X0324
X0321Y0116079
X0318Y0122079
X0321Y0128079
X0315
Y0140079
X0324Y0146079
X033
X0327Y0152079
X0321
X0324Y0158079
X033
X0327Y0164079
X0321
X0324Y0170079
X033
X0327Y0176079
X0321
X0324Y0182079
X033
X0318
Y0170079
Y0158079
X036
X0366
X0372
X0378
X0384
X0387Y0164079
X0381
X0375
X0369
X0363
X0357
X036Y0170079
X0366
X0372
X0378
X0384
X0387Y0176079
X0381
X0375
X0369
X0363
X0357
X036Y0182079
X0366
X0372
X0378
X0384
X0387Y0152079
X0381
X0375
X0369
X0363
X0357
X036Y0146079
X0366
X0372
X0378
X0384
X0387Y0140079
Y0128079
X0384Y0122079
X0387Y0116079
X0381
X0375
X0369
X0363
X0357
X0351
X0345
X0339
X0333
X0336Y0110079
X0342
X0348
X0354
X036
X0366
X0372
X0378
X0384
X0387Y0104079
X0381
X0375
X0369
X0363
X0357
X0351
X0345
X0339
X0333
X0336Y0098079
X0342
X0339Y0092079
X0333
X0336Y0086079
X0342
X0366
X0372
X0378
X0384
X0387Y0092079
X0381
X0375
X0369
X0372Y0098079
X0378
X0384
X0366
Y0122079
X036
X0354
X0348
X0351Y0128079
X0357
X036Y0134079
X0354
X0348
X0357Y0140079
X0363
X03Y0134079
X0294
X0288
X0291Y0140079
Y0116079
X0297
X0303
X0309
X0312Y0110079
X0306
X0309Y0104079
X0303
X0306Y0098079
X03
X0303Y0092079
X0309
X03Y0086079
X0294
X0288
X0291Y0080079
X0297
X0285
X0279
X0273Y0074079
X0267
Y0080079
X0261
X0255
X0249
X0243
X0237
X0231
X0225
X0219
X0213
X0207
X0201
X0204Y0074079
X021
X0216
X0222
X0228
X0234
X024
X0246
X0252
X0258
X0255Y0068079
X0249
X0243
X0237
X0231
X0225
X0219
X0213
X0207
X0201
X0195
X0189
X0192Y0062079
X0198
X0204
X021
X0216
X0222
X0228
X0234
X024
X0246
X0252
X0258
X0267
X0273
X0279
X0282Y0056079
X0279Y0050079
X0282Y0044079
Y0038079
X0288
X0294
X0306
X0312
Y0044079
X0309Y0050079
X0312Y0056079
X0309Y0062079
X0303
X0297
X03Y0068079
X0306
X0276
X027
X0264
Y0086079
X0258
X0252
X0246
X024
X0234
X0228
X0222
X0216
X021
X0213Y0092079
X0219
X0225
X0231
X0237
X0243
X0249
X0255
X0261
X0264Y0098079
X0258
X0252
X0246
X024
X0234
X0228
X0222
X0225Y0104079
X0231
X0237
X0243
X0249
X0255
X0258Y0110079
X0252
X0246
X024
X0234
X0237Y0116079
X0243
X0249
X0255
X0261Y0128079
X0267
X0264Y0134079
X0258
X0261Y0140079
X0267
X0243
X0237
X0231
X0225
X0228Y0134079
X0234
X024
X0222
X0216
X021
X0204
X0195Y0140079
X0183
Y0152079
X0171
X0165
X0159
X0162Y0158079
X0168
X0174
X0171Y0164079
X0165
X0159
X0162Y0170079
X0168
X0165Y0176079
X0159
X0162Y0182079
X0168
X0174
X018
X0186
X0192
X0198
X0216
X0222
X0228
X0234
X024
X0246
X0252
X0258
X0255Y0176079
X0249
X0243
X0237
X0231
X0225
X0219
X0222Y0170079
X0228
X0234
X024
X0246
X0252
X0258
X0264
X0261Y0164079
X0255
X0249
X0243
X0237
X0231
X0225
X0219
X0216Y0170079
X0228Y0158079
X0234
X024
X0246
X0252
X0258
X0249Y0152079
X0243
X0237
X0231
X0225
X0219Y0116079
X0213
X0207
X0201
X0195
X0189
X0183
X0177
X0171
X0165
X0174Y0110079
X018
X0186
X0192
X0198
X0204
X021
X0216
X0207Y0104079
X0201
X0195
X0189
X0183
X0177
X0186Y0098079
X0192
X0198
X0204
X0195Y0092079
X0189
X0192Y0086079
X0198Y0074079
X0195Y0056079
X0189
X0192Y0050079
X0198
X0195Y0044079
X0189
X0192Y0038079
X0198
X0204
X021
X0216
X0222
X0228
X0234
X024
X0246
X0252
X0258
X0264
X0276
X0285Y0032079
X0255
X0249
X0243
X0237
X0231
X0225
X0219
X0213
X0207
X0201
X0195
X0189
X0183
X0186Y0038079
X0174
X0171Y0056079
X0159
Y0044079
Y0032079
X0165Y0080079
X0168Y0086079
X0171Y0092079
X0165
X0168Y0098079
X0171Y0140079
X0165
X0159
X0189Y0164079
X0195
X0228Y0050079
X0234
X024
X0246
X0252
X0258
X0255Y0056079
X0249
X0243
Y0044079
X0249
X0255
X0225
X0153
X0147
X0141
X0135
X0129
X0132Y0038079
X0138
X0144
X015
X0156
X0153Y0032079
X0147
X0129
X0123
X0117
X012Y0038079
X0126
X0135Y0056079
X0141
X0147
X0153
X0156Y0062079
Y0050079
X015
X0144Y0086079
X015Y0098079
X0126Y0110079
X012
X0102
X0096
X009
X0084
X0078
X0072
X0078Y0122079
X0084
X009
X0087Y0128079
X0081
X0075
X0078Y0134079
X0084
X0081Y0140079
X0075
X0078Y0146079
X0075Y0152079
Y0164079
X0063Y0152079
X0057
X0051
X0045
X0048Y0146079
X0054
X006
X0066
X0063Y0140079
X0057
X0051
X0045
X0039
X0033
X0036Y0146079
X0033Y0152079
X0021
X0015
X0018Y0146079
X0024
X0012
X0006
X0009Y0140079
X0006Y0134079
Y0122079
X0012
X0015Y0116079
X0021
X0027
X003Y0122079
X0036
X0042
X0048
X0054
X006
X0066
X0063Y0128079
X0057
X0051
X0045
X0039
X0033
X0036Y0134079
X0042
X0048
X0054
X006
X0066
X0105Y0140079
X0111
X0117
X0123
X0129
Y0152079
X0123
X0111
X0105
Y0164079
Y0176079
X0111
X0114Y0182079
X0108
X0102
X0096
X0099Y0176079
X0135
X0141
X0147
X0153
X0156Y0182079
X015
X0144
X0138
X0135Y0164079
X0147
X0153
X0156Y0170079
X015
Y0158079
X0156
X0153Y0152079
X0147
Y0140079
X0153
X0096Y0086079
X0084
X0075Y0080079
X0066Y0086079
Y0074079
X0054
Y0086079
X0045Y0080079
X0039
X0033
X0027
X0021
X0024Y0086079
X0036
Y0074079
X0042
X0033Y0068079
X0027
X003Y0062079
X0036
X0024
X0027Y0056079
X0024Y0074079
X0006
X0009Y0080079
X0006Y0086079
Y0110079
X0012
X0009Y0116079
X0015Y0164079
Y0176079
X0021
X0024Y0182079
X0006
X0045Y0176079
X0051
X0054Y0182079
X0045Y0164079
X0051Y0056079
X0063
X0069
X0084Y0062079
X0114
X0105Y0032079
X0099
X0093
X0087
X0081
X0069
X0063
X0057
X0045
X0039
X0033
X0027
X0018Y0038079
X0006
X0009Y0032079
X0006Y0050079
Y0062079
X0009Y0188079
X0006Y0194079
Y0206079
X0018
X0021Y0212079
X0015
X0018Y0218079
X0006
X0009Y0224079
X0012Y0230079
X0006
X0009Y0236079
X0012Y0254079
X0018
X0024
X003
X0036
X0042
X0048
X0054
X006
X0066
X0081Y0248079
Y0224079
X0087
X0093
X0099
X0105
X0111
X0117
X0123
X0129
X0135
X0141
X0147
X0153
X0156Y0206079
X015
X0144
X0138
X0132
X0126
X012
X0114
X0117Y0200079
X0111
X0114Y0194079
X0111Y0188079
X0126Y0194079
X0135Y0188079
X0141
X0147
X0153
X0138Y0218079
X0132
Y0242079
X0126
X012
X009Y0218079
X0072
Y0206079
X0066
X006
X0054
Y0194079
X0048
X0042
X0063Y0200079
X0069
X0075
X0081
X0087
X0093
X009Y0194079
X0072
X0075Y0188079
X0039Y0224079
X0048Y0242079
X0006Y0254079
X0159Y0224079
X0165
X0168Y0206079
X0162
X0165Y0188079
X0171
X0177
X0183
X0189
X0195
X0201
X0225
X0231
X0237
X0243
X0249
X0255
X0258Y0194079
X0264
X0252
X024Y0206079
X0234
X0228
X0222
X0216
X0219Y0248079
X0198Y0242079
X0192
X0186
X0258
X0264
X027
X0282Y0254079
X0288
X0294
X03
X0306
X0312
X0291Y0248079
X0294Y0206079
X03
X0297Y0200079
X0291
X0285
X0279
X0273
X0276Y0206079
X0282
X0288
Y0194079
X0282
X0285Y0188079
X0279
X0297
X0303
X0309
X0312Y0194079
X0306
X0309Y0200079
X0312Y0206079
X027
X0252Y0230079
X0246
X0159Y0188079
X0315
X0321
X0327
X0333
X0339
X0345
X0351
X0357
X0363
X0369
X0375
X0381
X0387
X0384Y0194079
X0378
X0372
X0366
X036
X0354
X0348
X0342
X0336
X033
X0324
X0318
X0321Y0200079
X0327
X0333
X0339
X0345
X0351
X0357
X0363
X0369
X0375
X0381
X0378Y0206079
X0372
X0366
X036
X0354
X0348
X0342
X0336
X033
X0324
X0318
X0315Y0200079
X0318Y0230079
X0324
X033
X0336
X0342
X0339Y0236079
X0333
X0327
X033Y0242079
Y0254079
X0336
X0342
X0348
X0354
X036
X0366
X0372
X0378
X0384
X0387Y0248079
X0381
X0375
X0369
X0378Y0242079
X0384
X0387Y0236079
X0381
X0375
X0378Y0230079
X0384
X0387Y0224079
X0381
X0375
X0378Y0218079
X0384
X0387Y0212079
X0366Y0218079
X036
X0354
X0348
X0357Y0224079
X0366Y0230079
X0372
X0324Y0254079
X0318
T02
X0176Y0072079
X017815Y0162402
X0213055Y0173756
X0262937Y0108126
X015Y0090079
X0155Y0078079
X0119463Y0064616
X0105Y0084079
X0075Y0075079
X009Y0135394
X01Y0130315
X0105496Y0211575
X0059Y0233079
X0169Y0218583
X0167504Y0211575
X0212Y0218583
X0245504Y0211575
T03
X0165Y0020079
Y0030079
Y0040079
Y0050079
Y0060079
X019Y0155079
X02
X021
X022
X0264Y0180079
X0274
X005Y0200079
X004
X003
X002
X001
T04
X002Y0020079
X003
X004
X007
X008
X0105
X0115
X037
Y0010079
Y0030079
X014Y0050079
X013
X012
X0095
X0085
X006
X005
X004
X003
X002
Y0090079
X003
X004
X005
X006
X007
X008
X009
X01
X011
X012
X013
X014
Y0100079
Y0110079
Y0120079
Y0130079
Y0140079
Y0150079
Y0160079
Y0170079
X013
X012
X011
X01
X009
X008
X007
X006
X005
X004
X003
X002
X001
Y0160079
X002
X003
X004
X005
X006
X007
X008
X009
X01
X011
X012
X013
Y0100079
X012
X011
X01
X009
X008
X007
X006
X005
X004
X003
X002
X001
Y0090079
X002Y0240079
X003
X004
X007
X008
X009
X01
X011
X014
X015
X016
X017
X018
X021
X022
X023
X024
X025
X028
X029
X03
X031
X032
X035
X036
X037
T05
X033Y0030079
Y0050079
X03
Y0030079
X027
Y0050079
T06
X0374016Y013189
X0019685
M30
