G04*
G04 #@! TF.GenerationSoftware,Altium Limited,Altium Designer,18.0.7 (293)*
G04*
G04 Layer_Color=255*
%FSLAX25Y25*%
%MOIN*%
G70*
G01*
G75*
%ADD20R,0.16142X0.19488*%
%ADD21R,0.03543X0.02756*%
%ADD22R,0.02756X0.03543*%
%ADD23R,0.02559X0.06890*%
%ADD24R,0.17323X0.09843*%
%ADD25R,0.07087X0.02362*%
%ADD26R,0.02756X0.09449*%
%ADD27R,0.04724X0.09843*%
%ADD28R,0.06890X0.02559*%
%ADD29R,0.04800X0.03600*%
%ADD30R,0.07874X0.03937*%
%ADD54C,0.19685*%
%ADD55R,0.07087X0.07087*%
%ADD56C,0.07087*%
%ADD57R,0.05906X0.05906*%
%ADD58C,0.05906*%
%ADD59C,0.13780*%
%ADD60R,0.07087X0.07087*%
%ADD61R,0.05906X0.05906*%
D20*
X343000Y170079D02*
D03*
X305598D02*
D03*
D21*
X10000Y19984D02*
D03*
Y14079D02*
D03*
X80000Y81079D02*
D03*
Y75173D02*
D03*
X152000Y105126D02*
D03*
Y111031D02*
D03*
X59000Y225031D02*
D03*
Y219126D02*
D03*
X51000Y225031D02*
D03*
Y219126D02*
D03*
X130000Y185031D02*
D03*
Y179126D02*
D03*
X120000Y185031D02*
D03*
Y179126D02*
D03*
X340000Y246031D02*
D03*
Y240126D02*
D03*
X109400Y68173D02*
D03*
Y74079D02*
D03*
X216000Y188126D02*
D03*
Y194032D02*
D03*
X40000Y179079D02*
D03*
Y184984D02*
D03*
X10000Y240126D02*
D03*
Y246031D02*
D03*
X299000Y150531D02*
D03*
Y144626D02*
D03*
X269000Y95126D02*
D03*
Y101031D02*
D03*
X269000Y114032D02*
D03*
Y108126D02*
D03*
D22*
X58047Y178079D02*
D03*
X63953D02*
D03*
X143306Y70079D02*
D03*
X137400D02*
D03*
X143306Y78079D02*
D03*
X137400D02*
D03*
X370047Y40079D02*
D03*
X375953D02*
D03*
X279047Y122079D02*
D03*
X284953D02*
D03*
X296953Y122079D02*
D03*
X291047D02*
D03*
X288047Y109079D02*
D03*
X293953D02*
D03*
X284953Y116079D02*
D03*
X279047D02*
D03*
D23*
X294000Y95079D02*
D03*
X289000D02*
D03*
X284000D02*
D03*
X279000D02*
D03*
X294000Y73032D02*
D03*
X289000D02*
D03*
X284000D02*
D03*
X279000D02*
D03*
D24*
X320465Y91079D02*
D03*
X353535D02*
D03*
D25*
X119463Y74079D02*
D03*
X127337Y77819D02*
D03*
Y70339D02*
D03*
D26*
X207500Y208402D02*
D03*
X202500D02*
D03*
X197500D02*
D03*
X192500D02*
D03*
X187500D02*
D03*
X182500D02*
D03*
X177500D02*
D03*
X172500D02*
D03*
X207500Y173756D02*
D03*
X202500D02*
D03*
X197500D02*
D03*
X192500D02*
D03*
X187500D02*
D03*
X182500D02*
D03*
X177500D02*
D03*
X172500D02*
D03*
D27*
X281000Y140075D02*
D03*
Y158579D02*
D03*
D28*
X306953Y138579D02*
D03*
Y133579D02*
D03*
Y128579D02*
D03*
Y123579D02*
D03*
X329000Y138579D02*
D03*
Y133579D02*
D03*
Y128579D02*
D03*
Y123579D02*
D03*
D29*
X339000Y124129D02*
D03*
Y137029D02*
D03*
D30*
X307343Y211575D02*
D03*
Y218583D02*
D03*
X292657D02*
D03*
Y211575D02*
D03*
X237343D02*
D03*
Y218583D02*
D03*
X222657D02*
D03*
Y211575D02*
D03*
X160343D02*
D03*
Y218583D02*
D03*
X145658D02*
D03*
Y211575D02*
D03*
X97342D02*
D03*
Y218583D02*
D03*
X82657D02*
D03*
Y211575D02*
D03*
X97342Y188575D02*
D03*
Y195583D02*
D03*
X82657D02*
D03*
Y188575D02*
D03*
D54*
X374016Y131890D02*
D03*
X19685D02*
D03*
D55*
X20000Y50079D02*
D03*
X115000Y20079D02*
D03*
X120000Y50079D02*
D03*
X40000Y20079D02*
D03*
X350000Y240079D02*
D03*
X20000D02*
D03*
X80000Y20079D02*
D03*
X70000Y240079D02*
D03*
X85000Y50079D02*
D03*
X140000Y240079D02*
D03*
X210000D02*
D03*
X280000D02*
D03*
D56*
X40000Y50079D02*
D03*
X50000D02*
D03*
X30000D02*
D03*
X60000D02*
D03*
X105000Y20079D02*
D03*
X130000Y50079D02*
D03*
X140000D02*
D03*
X20000Y20079D02*
D03*
X30000D02*
D03*
X370000Y10079D02*
D03*
Y20079D02*
D03*
Y240079D02*
D03*
X360000D02*
D03*
X40000D02*
D03*
X30000D02*
D03*
X70000Y20079D02*
D03*
X110000Y240079D02*
D03*
X80000D02*
D03*
X100000D02*
D03*
X90000D02*
D03*
X95000Y50079D02*
D03*
X180000Y240079D02*
D03*
X150000D02*
D03*
X170000D02*
D03*
X160000D02*
D03*
X250000D02*
D03*
X220000D02*
D03*
X240000D02*
D03*
X230000D02*
D03*
X320000D02*
D03*
X290000D02*
D03*
X310000D02*
D03*
X300000D02*
D03*
D57*
X165000Y60079D02*
D03*
D58*
Y50079D02*
D03*
Y40079D02*
D03*
Y30079D02*
D03*
Y20079D02*
D03*
X264000Y180079D02*
D03*
X10000Y170079D02*
D03*
X140000D02*
D03*
X130000D02*
D03*
X120000D02*
D03*
X110000D02*
D03*
X100000D02*
D03*
X90000D02*
D03*
X80000D02*
D03*
X70000D02*
D03*
X60000D02*
D03*
X50000D02*
D03*
X40000D02*
D03*
X30000D02*
D03*
X20000D02*
D03*
Y90079D02*
D03*
X30000D02*
D03*
X40000D02*
D03*
X70000D02*
D03*
X80000D02*
D03*
X90000D02*
D03*
X100000D02*
D03*
X110000D02*
D03*
X120000D02*
D03*
X130000D02*
D03*
X140000D02*
D03*
X50000D02*
D03*
X60000D02*
D03*
Y100079D02*
D03*
X50000D02*
D03*
X10000Y160079D02*
D03*
X20000D02*
D03*
X30000D02*
D03*
X40000D02*
D03*
X50000D02*
D03*
X60000D02*
D03*
X70000D02*
D03*
X80000D02*
D03*
X90000D02*
D03*
X100000D02*
D03*
X110000D02*
D03*
X120000D02*
D03*
X130000D02*
D03*
X140000D02*
D03*
Y150079D02*
D03*
Y140079D02*
D03*
Y130079D02*
D03*
Y120079D02*
D03*
Y110079D02*
D03*
Y100079D02*
D03*
X130000D02*
D03*
X120000D02*
D03*
X110000D02*
D03*
X100000D02*
D03*
X90000D02*
D03*
X80000D02*
D03*
X70000D02*
D03*
X40000D02*
D03*
X30000D02*
D03*
X20000D02*
D03*
X10000D02*
D03*
Y90079D02*
D03*
X220000Y155079D02*
D03*
X210000D02*
D03*
X200000D02*
D03*
X50000Y200079D02*
D03*
X40000D02*
D03*
X30000D02*
D03*
X20000D02*
D03*
D59*
X330000Y50079D02*
D03*
Y30079D02*
D03*
X270000D02*
D03*
Y50079D02*
D03*
X300000Y30079D02*
D03*
Y50079D02*
D03*
D60*
X370000Y30079D02*
D03*
D61*
X274000Y180079D02*
D03*
X190000Y155079D02*
D03*
X10000Y200079D02*
D03*
M02*
