G04*
G04 #@! TF.GenerationSoftware,Altium Limited,Altium Designer,18.0.7 (293)*
G04*
G04 Layer_Color=16711935*
%FSLAX25Y25*%
%MOIN*%
G70*
G01*
G75*
%ADD64C,0.00394*%
D64*
X11870Y13685D02*
Y20378D01*
X8130Y13685D02*
Y20378D01*
X11870D01*
X8130Y13685D02*
X11870D01*
X158701Y70209D02*
Y73949D01*
X165394Y70209D02*
Y73949D01*
X158701Y70209D02*
X165394D01*
X158701Y73949D02*
X165394D01*
X57653Y179949D02*
X64346D01*
X57653Y176209D02*
X64346D01*
X57653D02*
Y179949D01*
X64346Y176209D02*
Y179949D01*
X78130Y81472D02*
X81870D01*
X78130Y74779D02*
X81870D01*
Y81472D01*
X78130Y74779D02*
Y81472D01*
X150130Y104732D02*
X153870D01*
X150130Y111425D02*
X153870D01*
X150130Y104732D02*
Y111425D01*
X153870Y104732D02*
Y111425D01*
X60870Y218732D02*
Y225425D01*
X57130Y218732D02*
Y225425D01*
X60870D01*
X57130Y218732D02*
X60870D01*
X52870D02*
Y225425D01*
X49130Y218732D02*
Y225425D01*
X52870D01*
X49130Y218732D02*
X52870D01*
X131870Y178732D02*
Y185425D01*
X128130Y178732D02*
Y185425D01*
X131870D01*
X128130Y178732D02*
X131870D01*
X121870D02*
Y185425D01*
X118130Y178732D02*
Y185425D01*
X121870D01*
X118130Y178732D02*
X121870D01*
X341870Y239732D02*
Y246425D01*
X338130Y239732D02*
Y246425D01*
X341870D01*
X338130Y239732D02*
X341870D01*
X120644Y79984D02*
X126156D01*
X120644Y68173D02*
X126156D01*
X120644D02*
Y79984D01*
X126156Y68173D02*
Y79984D01*
X107530Y67779D02*
Y74472D01*
X111270Y67779D02*
Y74472D01*
X107530Y67779D02*
X111270D01*
X107530Y74472D02*
X111270D01*
X137006Y68209D02*
X143699D01*
X137006Y71949D02*
X143699D01*
Y68209D02*
Y71949D01*
X137006Y68209D02*
Y71949D01*
Y76209D02*
X143699D01*
X137006Y79949D02*
X143699D01*
Y76209D02*
Y79949D01*
X137006Y76209D02*
Y79949D01*
X214130Y187732D02*
Y194425D01*
X217870Y187732D02*
Y194425D01*
X214130Y187732D02*
X217870D01*
X214130Y194425D02*
X217870D01*
X38130Y178685D02*
X41870D01*
X38130Y185378D02*
X41870D01*
X38130Y178685D02*
Y185378D01*
X41870Y178685D02*
Y185378D01*
X8130Y239732D02*
X11870D01*
X8130Y246425D02*
X11870D01*
X8130Y239732D02*
Y246425D01*
X11870Y239732D02*
Y246425D01*
X369654Y38209D02*
Y41949D01*
X376346Y38209D02*
Y41949D01*
X369654D02*
X376346D01*
X369654Y38209D02*
X376346D01*
X278654Y123949D02*
X285347D01*
X278654Y120209D02*
X285347D01*
X278654D02*
Y123949D01*
X285347Y120209D02*
Y123949D01*
X290653Y120209D02*
X297346D01*
X290653Y123949D02*
X297346D01*
Y120209D02*
Y123949D01*
X290653Y120209D02*
Y123949D01*
X300870Y144232D02*
Y150925D01*
X297130Y144232D02*
Y150925D01*
X300870D01*
X297130Y144232D02*
X300870D01*
X267130Y94732D02*
X270870D01*
X267130Y101425D02*
X270870D01*
X267130Y94732D02*
Y101425D01*
X270870Y94732D02*
Y101425D01*
X267130Y114425D02*
X270870D01*
X267130Y107732D02*
X270870D01*
Y114425D01*
X267130Y107732D02*
Y114425D01*
X287653Y107209D02*
Y110949D01*
X294346Y107209D02*
Y110949D01*
X287653D02*
X294346D01*
X287653Y107209D02*
X294346D01*
X285347Y114209D02*
Y117949D01*
X278654Y114209D02*
Y117949D01*
Y114209D02*
X285347D01*
X278654Y117949D02*
X285347D01*
M02*
